<svg width="115" height="24" viewBox="0 0 115 24" fill="none" xmlns="http://www.w3.org/2000/svg">
<g clip-path="url(#clip0_2530_6389)">
<path d="M7.95361 21.1396C4.89604 21.1306 2.25489 19.4582 0.987472 16.2897C-0.279942 13.1212 0.1091 9.16333 1.74381 5.61523C4.80138 5.62428 7.44253 7.29667 8.70994 10.4652C9.97736 13.6337 9.58832 17.5915 7.95361 21.1396Z" fill="white"/>
<path d="M7.95361 21.1396C4.89604 21.1306 2.25489 19.4582 0.987472 16.2897C-0.279942 13.1212 0.1091 9.16333 1.74381 5.61523C4.80138 5.62428 7.44253 7.29667 8.70994 10.4652C9.97736 13.6337 9.58832 17.5915 7.95361 21.1396Z" fill="url(#paint0_radial_2530_6389)"/>
<g style="mix-blend-mode:hard-light">
<path d="M7.95361 21.1396C4.89604 21.1306 2.25489 19.4582 0.987472 16.2897C-0.279942 13.1212 0.1091 9.16333 1.74381 5.61523C4.80138 5.62428 7.44253 7.29667 8.70994 10.4652C9.97736 13.6337 9.58832 17.5915 7.95361 21.1396Z" fill="black" fill-opacity="0.5"/>
</g>
<path style="mix-blend-mode:hard-light" d="M7.95361 21.1396C4.89604 21.1306 2.25489 19.4582 0.987472 16.2897C-0.279942 13.1212 0.1091 9.16333 1.74381 5.61523C4.80138 5.62428 7.44253 7.29667 8.70994 10.4652C9.97736 13.6337 9.58832 17.5915 7.95361 21.1396Z" fill="url(#paint1_linear_2530_6389)" fill-opacity="0.5"/>
<path d="M7.93571 21.111C4.89733 21.0955 2.27442 19.4304 1.01378 16.2788C-0.248068 13.1242 0.135919 9.18198 1.76196 5.64307C4.80035 5.65862 7.42326 7.32365 8.6839 10.4753C9.94574 13.6298 9.56175 17.5721 7.93571 21.111Z" stroke="url(#paint2_linear_2530_6389)" stroke-opacity="0.05" stroke-width="0.056338"/>
<path d="M7.3105 21.2572C11.3544 20.2213 14.8837 17.3752 16.6286 13.2359C18.3736 9.09649 17.9449 4.58727 15.8599 0.976074C11.816 2.01192 8.28672 4.85804 6.54179 8.9974C4.79686 13.1368 5.22552 17.646 7.3105 21.2572Z" fill="white"/>
<path d="M7.3105 21.2572C11.3544 20.2213 14.8837 17.3752 16.6286 13.2359C18.3736 9.09649 17.9449 4.58727 15.8599 0.976074C11.816 2.01192 8.28672 4.85804 6.54179 8.9974C4.79686 13.1368 5.22552 17.646 7.3105 21.2572Z" fill="url(#paint3_radial_2530_6389)"/>
<path d="M16.6028 13.225C14.8645 17.3489 11.3515 20.1865 7.32437 21.2247C5.25283 17.6239 4.82952 13.1323 6.5679 9.00845C8.30629 4.88462 11.8193 2.04696 15.8464 1.00879C17.9179 4.60957 18.3412 9.10121 16.6028 13.225Z" stroke="url(#paint4_linear_2530_6389)" stroke-opacity="0.05" stroke-width="0.056338"/>
<path d="M7.2334 21.2069C9.78878 23.2373 13.2099 23.9506 16.5769 22.8141C19.9438 21.6775 22.5055 18.9445 23.7301 15.6382C21.1747 13.6078 17.7535 12.8944 14.3866 14.031C11.0196 15.1676 8.45794 17.9006 7.2334 21.2069Z" fill="white"/>
<path d="M7.2334 21.2069C9.78878 23.2373 13.2099 23.9506 16.5769 22.8141C19.9438 21.6775 22.5055 18.9445 23.7301 15.6382C21.1747 13.6078 17.7535 12.8944 14.3866 14.031C11.0196 15.1676 8.45794 17.9006 7.2334 21.2069Z" fill="url(#paint5_radial_2530_6389)"/>
<g style="mix-blend-mode:hard-light">
<path d="M7.2334 21.2069C9.78878 23.2373 13.2099 23.9506 16.5769 22.8141C19.9438 21.6775 22.5055 18.9445 23.7301 15.6382C21.1747 13.6078 17.7535 12.8944 14.3866 14.031C11.0196 15.1676 8.45794 17.9006 7.2334 21.2069Z" fill="black" fill-opacity="0.2"/>
</g>
<path style="mix-blend-mode:hard-light" d="M7.2334 21.2069C9.78878 23.2373 13.2099 23.9506 16.5769 22.8141C19.9438 21.6775 22.5055 18.9445 23.7301 15.6382C21.1747 13.6078 17.7535 12.8944 14.3866 14.031C11.0196 15.1676 8.45794 17.9006 7.2334 21.2069Z" fill="url(#paint6_linear_2530_6389)" fill-opacity="0.5"/>
<path d="M16.5686 22.7876C13.218 23.9186 9.81399 23.2126 7.26758 21.1977C8.49232 17.907 11.0448 15.1892 14.3963 14.0579C17.7469 12.9268 21.1508 13.6328 23.6972 15.6478C22.4725 18.9385 19.92 21.6562 16.5686 22.7876Z" stroke="url(#paint7_linear_2530_6389)" stroke-opacity="0.05" stroke-width="0.056338"/>
<path d="M32.6052 9.79172C32.6052 8.83241 33.0221 8.07931 33.8559 7.53241C34.6897 6.98552 35.649 6.71207 36.7338 6.71207C38.1234 6.71207 39.3428 7.11103 40.3917 7.90896C40.9117 8.31241 41.3152 8.85034 41.6021 9.52276C41.889 10.1862 42.0324 10.9214 42.0324 11.7283C42.0324 13.3152 41.5797 14.6062 40.6741 15.6014C39.7328 16.6145 38.5538 17.121 37.1372 17.121C36.8234 17.121 36.4917 17.0807 36.1421 17C35.7924 16.9193 35.5145 16.8117 35.3083 16.6772C34.9766 16.9283 34.5507 17.0538 34.0307 17.0538C33.5197 17.0538 33.1207 16.9103 32.8338 16.6234C32.5469 16.3366 32.4034 15.969 32.4034 15.5207C32.4034 14.4628 33.2059 13.5617 34.8107 12.8176C34.8555 12.441 34.9183 11.9345 34.999 11.2979C35.0886 10.6524 35.1559 10.1324 35.2007 9.73793C35.2545 9.34345 35.2903 9.08345 35.3083 8.95793C35.6759 8.72483 36.1017 8.60828 36.5859 8.60828C36.81 8.60828 37.0252 8.63069 37.2314 8.67552L36.3841 14.4179C36.3034 14.929 36.1914 15.3548 36.0479 15.6955C36.3259 15.7672 36.55 15.8031 36.7203 15.8031C37.7514 15.8031 38.5493 15.4131 39.1141 14.6331C39.6969 13.8172 39.9883 12.831 39.9883 11.6745C39.9883 10.1952 39.4548 9.13276 38.3879 8.48724C37.7962 8.12862 37.1462 7.94931 36.4379 7.94931C35.5324 7.94931 34.8152 8.19586 34.2862 8.68897C33.9814 8.9669 33.829 9.3031 33.829 9.69759C33.829 9.90379 33.8917 10.101 34.0172 10.2893C34.1428 10.4686 34.3624 10.5717 34.6762 10.5986L34.5417 11.4728C33.8872 11.4369 33.3986 11.2576 33.0759 10.9348C32.7621 10.6031 32.6052 10.2221 32.6052 9.79172ZM33.3986 15.3459C33.3986 15.6686 33.551 15.83 33.8559 15.83C33.9814 15.83 34.1114 15.7493 34.2459 15.5879C34.3893 15.4176 34.4879 15.1531 34.5417 14.7945L34.6628 13.9607C33.82 14.4359 33.3986 14.8976 33.3986 15.3459ZM44.9526 13.9876C45.5084 13.871 45.9209 13.6469 46.1898 13.3152C46.4678 12.9834 46.6067 12.6652 46.6067 12.3603C46.6067 12.0466 46.5215 11.8359 46.3512 11.7283C46.1898 11.6117 46.0105 11.5534 45.8133 11.5534C45.3919 11.5534 45.0198 11.791 44.6971 12.2662C44.3833 12.7324 44.2264 13.2928 44.2264 13.9472C44.2264 14.5928 44.3788 15.0769 44.6836 15.3997C44.9974 15.7134 45.3829 15.8703 45.8402 15.8703C46.5126 15.8703 47.1581 15.6372 47.7767 15.171C48.3953 14.7048 48.8974 14.0952 49.2829 13.3421C49.4802 13.5303 49.6595 13.7634 49.8209 14.0414C49.525 14.7138 49.0005 15.3728 48.2474 16.0183C47.8709 16.3321 47.4226 16.5876 46.9026 16.7848C46.3915 16.9821 45.8626 17.0807 45.3157 17.0807C44.4191 17.0807 43.7109 16.8072 43.1909 16.2603C42.635 15.6686 42.3571 14.911 42.3571 13.9876C42.3571 13.0641 42.7022 12.2572 43.3926 11.5669C44.0919 10.8766 44.9257 10.5314 45.894 10.5314C46.5843 10.5314 47.1446 10.6838 47.575 10.9886C48.0053 11.2845 48.225 11.6879 48.234 12.199C48.234 12.8893 47.956 13.4497 47.4002 13.88C46.8533 14.3103 46.1002 14.6107 45.1409 14.781L44.9526 13.9876ZM54.3371 12.8848C55.0453 13.4048 55.3995 14.019 55.3995 14.7272C55.3995 15.4355 55.1215 16.0048 54.5657 16.4352C54.0098 16.8655 53.3105 17.0807 52.4678 17.0807C51.9209 17.0807 51.4636 16.9462 51.096 16.6772C50.7374 16.3993 50.5581 16.0586 50.5581 15.6552C50.5581 15.2517 50.6926 14.9334 50.9615 14.7003C51.2305 14.4583 51.5667 14.3103 51.9702 14.2566C51.7819 14.5255 51.6878 14.7855 51.6878 15.0366C51.6878 15.2786 51.7729 15.4759 51.9433 15.6283C52.1136 15.7807 52.3288 15.8569 52.5888 15.8569C52.8488 15.8569 53.064 15.7628 53.2343 15.5745C53.4046 15.3772 53.4898 15.1531 53.4898 14.9021C53.4898 14.4897 53.2971 14.1221 52.9115 13.7993C52.6784 13.611 52.4274 13.4362 52.1584 13.2748C51.8895 13.1045 51.746 13.0148 51.7281 13.0059C51.6922 12.979 51.6564 12.9566 51.6205 12.9386C51.4591 13.1269 51.226 13.3869 50.9212 13.7186C50.6164 14.0414 50.3743 14.3014 50.195 14.4986C49.6929 15.0455 49.4105 15.5028 49.3478 15.8703C49.3298 15.9421 49.3209 16.081 49.3209 16.2872C49.3209 16.4845 49.3791 16.6907 49.4957 16.9059C49.6212 17.121 49.7691 17.2824 49.9395 17.39C50.1098 17.4976 50.2757 17.5828 50.4371 17.6455C50.6074 17.7172 50.7509 17.7666 50.8674 17.7934C50.9929 17.8203 51.0557 17.8383 51.0557 17.8472C51.0557 17.91 50.9571 17.9817 50.7598 18.0624C50.3922 18.1969 50.0067 18.2641 49.6033 18.2641C49.2088 18.2641 48.8233 18.1207 48.4467 17.8338C47.9357 17.4393 47.6802 16.9148 47.6802 16.2603C47.6802 15.8569 47.7833 15.4579 47.9895 15.0634C48.3571 14.3641 49.2178 13.4048 50.5715 12.1855C50.2398 11.8538 50.074 11.4997 50.074 11.1231C50.074 10.7466 50.2129 10.4283 50.4909 10.1683C50.7778 9.90828 51.114 9.77828 51.4995 9.77828C51.8491 9.77828 52.154 9.91724 52.414 10.1952C52.5843 10.3834 52.6695 10.621 52.6695 10.9079C52.6695 11.1948 52.5753 11.5176 52.3871 11.8762C53.3464 12.3066 53.9964 12.6428 54.3371 12.8848ZM51.4188 11.3652C51.634 11.141 51.7415 10.9797 51.7415 10.881C51.7415 10.6569 51.6429 10.5359 51.4457 10.5179C51.2215 10.5179 51.1095 10.6434 51.1095 10.8945C51.1095 11.0469 51.2126 11.2038 51.4188 11.3652ZM56.6589 7.10207C56.8651 6.8869 57.1161 6.77931 57.412 6.77931C57.7078 6.77931 57.9589 6.8869 58.1651 7.10207C58.3803 7.30828 58.4878 7.55931 58.4878 7.85517C58.4878 8.15103 58.3803 8.40207 58.1651 8.60828C57.9589 8.81448 57.7078 8.91759 57.412 8.91759C57.1161 8.91759 56.8651 8.81448 56.6589 8.60828C56.4527 8.40207 56.3496 8.15103 56.3496 7.85517C56.3496 7.55931 56.4527 7.30828 56.6589 7.10207ZM56.1075 11.0424C56.1972 10.881 56.3675 10.76 56.6185 10.6793C56.8696 10.5897 57.1161 10.5448 57.3582 10.5448C57.6092 10.5448 57.8289 10.5762 58.0172 10.639C57.6675 13.3376 57.4927 14.7003 57.4927 14.7272C57.4478 14.9066 57.4254 15.059 57.4254 15.1845C57.4254 15.301 57.4344 15.4041 57.4523 15.4938C57.4882 15.7269 57.6496 15.8434 57.9365 15.8434C58.2323 15.8434 58.5013 15.6552 58.7434 15.2786C58.9944 14.8931 59.1827 14.4583 59.3082 13.9741C59.371 14.01 59.4696 14.1176 59.6041 14.2969C59.7385 14.4762 59.8192 14.6107 59.8461 14.7003C59.6668 15.4176 59.362 15.9959 58.9316 16.4352C58.5013 16.8745 57.9858 17.0941 57.3851 17.0941C56.7844 17.0941 56.3361 16.9462 56.0403 16.6503C55.7534 16.3545 55.6099 15.9734 55.6099 15.5072C55.6099 15.4086 55.6144 15.3055 55.6234 15.1979L56.1075 11.0424ZM62.3669 10.5314C62.86 10.5314 63.3128 10.6121 63.7252 10.7734C64.0031 10.6031 64.2945 10.5179 64.5994 10.5179C64.9042 10.5179 65.1463 10.5583 65.3256 10.639L64.8414 14.4314C65.5049 13.9203 66.0069 13.4541 66.3476 13.0328L66.7376 13.8531C66.2266 14.391 65.5452 14.9648 64.6935 15.5745L64.3304 18.3852C64.2318 19.2279 63.9538 19.8734 63.4966 20.3217C63.0483 20.779 62.4656 21.0076 61.7483 21.0076C61.3359 21.0076 60.9325 20.8731 60.538 20.6041C60.1256 20.3172 59.9194 19.8555 59.9194 19.219C59.9194 18.439 60.2914 17.7262 61.0356 17.0807C60.399 17.0359 59.8521 16.7714 59.3949 16.2872C58.9376 15.8031 58.709 15.171 58.709 14.391C58.709 13.2166 59.0542 12.2797 59.7445 11.5803C60.4349 10.881 61.309 10.5314 62.3669 10.5314ZM62.5687 11.5803C61.9949 11.5803 61.5376 11.8 61.1969 12.2393C60.8652 12.6697 60.668 13.3152 60.6052 14.1759C60.5963 14.2566 60.5918 14.3328 60.5918 14.4045C60.5918 14.8438 60.6949 15.1934 60.9011 15.4534C61.1163 15.7134 61.3897 15.8434 61.7214 15.8434C62.2863 15.8434 62.7121 15.449 62.999 14.66L63.3352 11.7417C63.0573 11.6341 62.8018 11.5803 62.5687 11.5803ZM60.9549 19.0172C60.9549 19.2593 61.0221 19.4476 61.1566 19.5821C61.3 19.7255 61.4614 19.7972 61.6407 19.7972C62.1428 19.7972 62.4342 19.479 62.5149 18.8424L62.7435 16.8252C61.5511 17.5334 60.9549 18.2641 60.9549 19.0172ZM69.7396 15.4938L70.0624 12.4948C70.0624 12.2528 69.9996 12.051 69.8741 11.8897C69.7486 11.7283 69.5379 11.6476 69.2421 11.6476C68.9552 11.6476 68.7086 11.7776 68.5024 12.0376C68.3052 12.2886 68.1796 12.6069 68.1259 12.9924C67.8031 15.449 67.6327 16.7848 67.6148 17H65.7993L66.539 10.6659C66.9155 10.5672 67.2024 10.5179 67.3996 10.5179C68.0003 10.5179 68.3141 10.7376 68.341 11.1769C68.7803 10.7466 69.3048 10.5314 69.9145 10.5314C70.5331 10.5314 71.0172 10.6838 71.3669 10.9886C71.7165 11.2934 71.8914 11.679 71.8914 12.1452C71.8914 12.2707 71.8645 12.5083 71.8107 12.8579C71.6045 14.2207 71.5014 15.0141 71.5014 15.2383C71.5014 15.6507 71.6403 15.8569 71.9183 15.8569C72.5279 15.8569 72.9896 15.2203 73.3034 13.9472C73.6083 14.27 73.7921 14.5255 73.8548 14.7138C73.3796 16.2917 72.5548 17.0807 71.3803 17.0807C70.8245 17.0807 70.4121 16.9103 70.1431 16.5697C69.8741 16.229 69.7396 15.8703 69.7396 15.4938ZM79.7758 10.5179C80.4214 10.5179 80.9772 10.7824 81.4434 11.3114C81.9096 11.8403 82.1427 12.459 82.1427 13.1672C82.1427 13.2659 82.1383 13.369 82.1293 13.4766C82.0307 14.651 81.6362 15.5476 80.9458 16.1662C80.2555 16.7759 79.3545 17.0807 78.2427 17.0807C77.7945 17.0628 77.4045 16.9821 77.0727 16.8386C76.741 16.6952 76.4945 16.5159 76.3331 16.3007C76.0283 15.9062 75.8758 15.5566 75.8758 15.2517C75.8758 14.9379 75.9207 14.4359 76.0103 13.7455C76.1986 12.329 76.4676 10.0383 76.8172 6.87345C77.0055 6.80172 77.2565 6.76586 77.5703 6.76586C78.2876 6.76586 78.6462 6.97207 78.6462 7.38448L78.1889 10.9617C78.6103 10.6659 79.1393 10.5179 79.7758 10.5179ZM77.6914 15.1576C77.6914 15.3638 77.7676 15.5386 77.92 15.6821C78.0814 15.8166 78.301 15.8838 78.5789 15.8838C79.0362 15.8838 79.4127 15.6731 79.7086 15.2517C80.0672 14.7407 80.2465 14.0772 80.2465 13.2614C80.2465 12.8669 80.1569 12.5172 79.9776 12.2124C79.7983 11.9076 79.5203 11.7552 79.1438 11.7552C78.6327 11.7552 78.2427 12.06 77.9738 12.6697L77.8662 13.4766C77.7496 14.3821 77.6914 14.9424 77.6914 15.1576ZM86.2407 10.5314C87.0655 10.5314 87.7514 10.7959 88.2983 11.3248C88.8541 11.8538 89.1321 12.4993 89.1321 13.2614C89.1321 14.4179 88.7914 15.3459 88.11 16.0452C87.4376 16.7355 86.6217 17.0807 85.6624 17.0807C84.7031 17.0807 83.941 16.8072 83.3762 16.2603C82.8203 15.7134 82.5424 15.0366 82.5424 14.2297C82.5424 13.1 82.8876 12.2034 83.5779 11.54C84.2772 10.8676 85.1648 10.5314 86.2407 10.5314ZM85.9717 11.6207C85.5503 11.6207 85.1962 11.8628 84.9093 12.3469C84.6224 12.831 84.4655 13.4407 84.4386 14.1759C84.4386 14.6959 84.5417 15.1262 84.7479 15.4669C84.9631 15.8076 85.2859 15.9779 85.7162 15.9779C86.1465 15.9779 86.5052 15.7403 86.7921 15.2652C87.0879 14.79 87.2359 14.2476 87.2359 13.6379C87.2359 13.0283 87.1327 12.5441 86.9265 12.1855C86.7203 11.809 86.4021 11.6207 85.9717 11.6207ZM95.6885 17.0672C94.8637 17.0672 94.3168 16.7803 94.0478 16.2066C93.5816 16.7893 92.9809 17.0807 92.2458 17.0807C91.5195 17.0807 90.9054 16.8341 90.4033 16.341C89.9102 15.8479 89.6637 15.1979 89.6637 14.391C89.6637 13.2166 90.0089 12.2797 90.6992 11.5803C91.3895 10.881 92.2637 10.5314 93.3216 10.5314C93.3485 10.5314 93.3754 10.5314 93.4023 10.5314C93.8506 10.5314 94.263 10.6076 94.6395 10.76C94.8816 10.6076 95.173 10.5314 95.5137 10.5314C95.8633 10.5314 96.1144 10.5762 96.2668 10.6659C96.1861 11.3293 96.1009 11.9838 96.0113 12.6293C95.9216 13.2659 95.8589 13.7186 95.823 13.9876C95.7423 14.5972 95.702 15.0366 95.702 15.3055C95.702 15.6641 95.8454 15.8434 96.1323 15.8434C96.3564 15.8434 96.594 15.6955 96.8451 15.3997C97.0961 15.0948 97.3158 14.6197 97.504 13.9741C97.764 14.2072 97.9433 14.4672 98.042 14.7541C97.782 15.6059 97.4323 16.2066 96.993 16.5562C96.5537 16.8969 96.1189 17.0672 95.6885 17.0672ZM93.5233 11.5803C92.9495 11.5803 92.4923 11.8 92.1516 12.2393C91.8199 12.6697 91.6226 13.3152 91.5599 14.1759C91.5509 14.2566 91.5464 14.3328 91.5464 14.4045C91.5464 14.8438 91.6495 15.1934 91.8558 15.4534C92.0709 15.7134 92.3444 15.8434 92.6761 15.8434C93.2409 15.8434 93.6668 15.4445 93.9537 14.6466L94.2764 11.7417C94.0164 11.6341 93.7654 11.5803 93.5233 11.5803ZM101.039 12.2931C101.039 11.8986 100.855 11.7014 100.488 11.7014C100.129 11.7014 99.842 11.9345 99.6269 12.4007C100.595 13.1628 101.079 14.019 101.079 14.9693C101.079 15.6597 100.887 16.1841 100.501 16.5428C100.115 16.9014 99.6313 17.0807 99.0486 17.0807C98.4658 17.0807 98.04 16.9014 97.771 16.5428C97.502 16.1752 97.3675 15.7134 97.3675 15.1576C97.3675 14.9872 97.372 14.8617 97.381 14.781L97.8517 10.6793C98.1744 10.5807 98.5017 10.5314 98.8334 10.5314C99.3803 10.5314 99.6538 10.7331 99.6538 11.1366V11.1634C100.012 10.7421 100.47 10.5314 101.025 10.5314C101.429 10.5314 101.743 10.6255 101.967 10.8138C102.191 10.9931 102.303 11.2352 102.303 11.54C102.303 11.8448 102.187 12.0959 101.953 12.2931C101.729 12.4814 101.433 12.5755 101.066 12.5755C101.048 12.5755 101.03 12.5755 101.012 12.5755C101.03 12.4769 101.039 12.3828 101.039 12.2931ZM100.205 14.9021C100.205 14.3821 99.9362 13.8621 99.3982 13.3421C99.2369 14.6331 99.1562 15.2831 99.1562 15.2921C99.1562 15.6686 99.3086 15.8569 99.6134 15.8569C100.008 15.8569 100.205 15.5386 100.205 14.9021ZM107.751 7.30379C107.814 7.15138 107.953 7.02586 108.168 6.92724C108.392 6.81966 108.657 6.76586 108.961 6.76586C109.275 6.76586 109.508 6.81069 109.661 6.90034C109.571 7.59965 109.428 8.69793 109.23 10.1952C108.818 13.3241 108.612 15.05 108.612 15.3728C108.612 15.6866 108.746 15.8434 109.015 15.8434C109.248 15.8434 109.49 15.7 109.741 15.4131C109.992 15.1172 110.221 14.6376 110.427 13.9741C110.678 14.2162 110.853 14.4807 110.952 14.7676C110.629 15.8345 110.122 16.5248 109.432 16.8386C109.118 16.991 108.822 17.0672 108.545 17.0672C107.747 17.0672 107.213 16.7803 106.944 16.2066C106.478 16.7893 105.882 17.0807 105.156 17.0807C104.429 17.0807 103.815 16.8341 103.313 16.341C102.82 15.8479 102.573 15.1979 102.573 14.391C102.573 13.2166 102.919 12.2797 103.609 11.5803C104.299 10.881 105.173 10.5314 106.231 10.5314C106.258 10.5314 106.285 10.5314 106.312 10.5314C106.68 10.5314 107.025 10.5852 107.348 10.6928L107.751 7.30379ZM106.433 11.5803C105.859 11.5803 105.402 11.8 105.061 12.2393C104.73 12.6697 104.532 13.3152 104.47 14.1759C104.461 14.2566 104.456 14.3328 104.456 14.4045C104.456 14.8438 104.559 15.1934 104.766 15.4534C104.981 15.7134 105.254 15.8434 105.586 15.8434C106.151 15.8434 106.577 15.4445 106.863 14.6466L107.213 11.7552C106.917 11.6386 106.657 11.5803 106.433 11.5803Z" fill="white"/>
</g>
<defs>
<radialGradient id="paint0_radial_2530_6389" cx="0" cy="0" r="1" gradientUnits="userSpaceOnUse" gradientTransform="translate(-3.00485 15.0232) rotate(-10.029) scale(17.9572 17.784)">
<stop stop-color="#00B0BB"/>
<stop offset="1" stop-color="#00DB65"/>
</radialGradient>
<linearGradient id="paint1_linear_2530_6389" x1="7.39054" y1="4.81327" x2="1.62993" y2="18.6896" gradientUnits="userSpaceOnUse">
<stop stop-color="#18E299"/>
<stop offset="1"/>
</linearGradient>
<linearGradient id="paint2_linear_2530_6389" x1="7.94847" y1="8.01542" x2="1.76151" y2="18.7458" gradientUnits="userSpaceOnUse">
<stop/>
<stop offset="1" stop-opacity="0"/>
</linearGradient>
<radialGradient id="paint3_radial_2530_6389" cx="0" cy="0" r="1" gradientUnits="userSpaceOnUse" gradientTransform="translate(8.11416 20.882) rotate(-75.7542) scale(21.6246 23.7772)">
<stop stop-color="#00BBBB"/>
<stop offset="0.712616" stop-color="#00DB65"/>
</radialGradient>
<linearGradient id="paint4_linear_2530_6389" x1="7.60231" y1="5.8708" x2="15.5564" y2="16.3718" gradientUnits="userSpaceOnUse">
<stop/>
<stop offset="1" stop-opacity="0"/>
</linearGradient>
<radialGradient id="paint5_radial_2530_6389" cx="0" cy="0" r="1" gradientUnits="userSpaceOnUse" gradientTransform="translate(7.84509 21.5181) rotate(-20.3525) scale(18.5603 17.32)">
<stop stop-color="#00B0BB"/>
<stop offset="1" stop-color="#00DB65"/>
</radialGradient>
<linearGradient id="paint6_linear_2530_6389" x1="16.8075" y1="13.0071" x2="10.0406" y2="22.9937" gradientUnits="userSpaceOnUse">
<stop stop-color="#00B1BC"/>
<stop offset="1"/>
</linearGradient>
<linearGradient id="paint7_linear_2530_6389" x1="16.8082" y1="13.0073" x2="14.1691" y2="23.8412" gradientUnits="userSpaceOnUse">
<stop/>
<stop offset="1" stop-opacity="0"/>
</linearGradient>
<clipPath id="clip0_2530_6389">
<rect width="115" height="24" fill="white"/>
</clipPath>
</defs>
</svg>
